<svg xmlns="http://www.w3.org/2000/svg" version="1.1" xmlns:xlink="http://www.w3.org/1999/xlink" xmlns:svgjs="http://svgjs.dev/svgjs" width="1000" height="750" viewBox="0 0 1000 750"><rect width="1000" height="750" fill="#f8f8f8"></rect><g transform="matrix(0.834,0,0,0.834,82.49454545454546,115.4193570850203)"><svg viewBox="0 0 396 247" data-background-color="#f8f8f8" preserveAspectRatio="xMidYMid meet" height="623" width="1000" xmlns="http://www.w3.org/2000/svg" xmlns:xlink="http://www.w3.org/1999/xlink"><g id="tight-bounds" transform="matrix(1,0,0,1,0.2400000000000091,-0.09999999999999432)"><svg viewBox="0 0 395.52 247.2" height="247.2" width="395.52"><g><svg></svg></g><g><svg viewBox="0 0 395.52 247.2" height="247.2" width="395.52"><g transform="matrix(1,0,0,1,39.55199999999999,101.82944811234725)"><svg viewBox="0 0 316.416 43.54110377530549" height="43.54110377530549" width="316.416"><g><svg viewBox="0 0 316.416 43.54110377530549" height="43.54110377530549" width="316.416"><g><svg viewBox="0 0 316.416 43.54110377530549" height="43.54110377530549" width="316.416"><g id="textblocktransform"><svg viewBox="0 0 316.416 43.54110377530549" height="43.54110377530549" width="316.416" id="textblock"><g><svg viewBox="0 0 316.416 43.54110377530549" height="43.54110377530549" width="316.416"><g transform="matrix(1,0,0,1,0,0)"><svg width="316.416" viewBox="-0.7599999904632568 -35.84000015258789 267.71002197265625 36.84000015258789" height="43.54110377530549" data-palette-color="#61777f"><path d="M5-35.35L5-35.35Q5.91-35.45 6.49-34.3L6.49-34.3 15.31-18.04Q23.02-30.08 24-32.59L24-32.59Q24.32-33.5 23.44-34.02 22.56-34.55 20.51-34.74L20.51-34.74 20.41-35.21Q24.8-35.62 26.95-34.96L26.95-34.96Q27.34-34.77 27.15-34.35L27.15-34.35Q26.73-33.52 26.25-32.63 25.76-31.74 16.41-16.75L16.41-16.75 16.41-4.39Q16.41-2.42 17.2-1.51 17.99-0.61 20.24-0.2L20.24-0.2 20.04 0.39Q17.33 0.02 15.92 0 14.5-0.02 12.3 0.39L12.3 0.39 12.16 0.15Q12.65-0.56 12.65-2.44L12.65-2.44 12.65-15.8 4.91-29.81Q3.93-31.45 3.17-32.15 2.42-32.86 1.59-32.97 0.76-33.08-0.39-32.91L-0.39-32.91-0.76-33.35Q2.83-35.16 5-35.35ZM27.93-0.49L42.84-33.84Q43.67-34.35 44.75-35.79L44.75-35.79 44.99-35.79 58.44-3.39Q59.35-1.22 62.13-0.34L62.13-0.34 62.13 0.1Q60.54-0.07 58.32 0.04 56.1 0.15 54.39 0.44L54.39 0.44 54.2 0.2Q54.69-0.44 54.43-1.93 54.17-3.42 52.93-6.45L52.93-6.45 48.9-16.55Q41.72-16.67 37.03-16.5L37.03-16.5 31.39-3.39Q30.88-2.27 31.77-1.51 32.66-0.76 35.28-0.24L35.28-0.24 35.18 0.2Q30.93-0.12 28.24 0L28.24 0Q28.1-0.15 27.93-0.49L27.93-0.49ZM43.19-30.69L37.69-17.94Q41.23-17.85 48.29-17.94L48.29-17.94 43.19-30.69ZM95.55-34.11L95.55 0 94.55 0Q92.89-2.25 85.03-12.17 77.17-22.09 73.8-26.54L73.8-26.54Q72.33-28.44 70.99-31.01L70.99-31.01 70.84-30.91 70.84-3.15Q70.84-2.22 71.44-1.71 72.04-1.2 72.76-1.01 73.48-0.83 74.75-0.61 76.02-0.39 76.24-0.34L76.24-0.34 76.24 0.15Q71.63-0.15 68.84 0.15L68.84 0.15Q68.7-0.51 68.7-1.15L68.7-1.15 68.7-29.25Q68.62-30.98 68.09-32.35L68.09-32.35Q67.38-34.25 64.84-34.06L64.84-34.06 64.84-34.55Q68.26-35.4 71.55-35.4L71.55-35.4 89.94-11.89Q91.23-10.25 92-8.95 92.77-7.64 93.5-5.69L93.5-5.69 93.5-31.1Q93.5-32.81 92.22-33.53 90.94-34.25 88.2-34.06L88.2-34.06 88.08-34.55Q91.25-35.33 95.14-35.4L95.14-35.4Q95.55-34.77 95.55-34.11L95.55-34.11ZM102.53-0.49L117.45-33.84Q118.28-34.35 119.35-35.79L119.35-35.79 119.6-35.79 133.05-3.39Q133.95-1.22 136.74-0.34L136.74-0.34 136.74 0.1Q135.15-0.07 132.93 0.04 130.71 0.15 129 0.44L129 0.44 128.8 0.2Q129.29-0.44 129.03-1.93 128.78-3.42 127.53-6.45L127.53-6.45 123.5-16.55Q116.33-16.67 111.64-16.5L111.64-16.5 106-3.39Q105.49-2.27 106.38-1.51 107.27-0.76 109.88-0.24L109.88-0.24 109.78 0.2Q105.53-0.12 102.85 0L102.85 0Q102.7-0.15 102.53-0.49L102.53-0.49ZM117.79-30.69L112.3-17.94Q115.84-17.85 122.89-17.94L122.89-17.94 117.79-30.69ZM136.95-34.69L137.25-35.25Q140.81-35.57 144.16-35.71 147.5-35.84 150.77-35.84L150.77-35.84Q154.04-35.84 157.88-35.68 161.71-35.52 166.25-35.21L166.25-35.21 166.54-34.69 164.25-28.76 163.44-29Q163.61-29.86 163.7-30.6 163.78-31.35 163.78-32.01L163.78-32.01Q163.78-32.91 163.64-33.64L163.64-33.64Q160.54-33.84 158.06-33.94 155.58-34.03 153.65-34.06L153.65-34.06 153.65-4.39Q153.65-3.39 153.84-2.69 154.02-1.98 154.46-1.49 154.9-1 155.63-0.7 156.36-0.39 157.49-0.2L157.49-0.2 157.29 0.39Q155.82 0.2 154.75 0.1 153.68 0 152.94 0L152.94 0Q152.26 0 151.42 0.1 150.58 0.2 149.55 0.39L149.55 0.39 149.4 0.15Q149.89-0.56 149.89-2.44L149.89-2.44 149.89-34.06Q148.04-34.03 145.55-33.94 143.06-33.84 139.86-33.64L139.86-33.64Q139.71-32.84 139.71-31.93L139.71-31.93Q139.71-30.64 140.05-29L140.05-29 139.25-28.76 136.95-34.69ZM177.7-32.59L177.7-32.59 177.7-10.3Q177.7-7.62 178.21-5.82 178.72-4.03 179.64-2.95 180.55-1.88 181.84-1.43 183.12-0.98 184.66-0.98L184.66-0.98Q186.12-0.98 187.7-1.38 189.27-1.78 190.84-2.5 192.42-3.22 193.92-4.21 195.42-5.2 196.74-6.35L196.74-6.35 196.74-28.1Q196.74-29.71 196.59-30.8 196.45-31.88 196.06-32.54 195.67-33.2 194.96-33.48 194.25-33.76 193.44-33.76 192.64-33.76 192.44-33.74L192.44-33.74 192.35-34.2Q196.33-35.4 199.99-35.4L199.99-35.4Q200.5-34.11 200.5-32.59L200.5-32.59 200.5-4.39Q200.5-3.39 200.68-2.69 200.87-1.98 201.31-1.49 201.75-1 202.49-0.7 203.23-0.39 204.36-0.2L204.36-0.2 204.14 0.39Q202.67 0.2 201.6 0.1 200.52 0 199.79 0L199.79 0Q199.11 0 198.27 0.1 197.42 0.2 196.4 0.39L196.4 0.39 196.25 0.15Q196.74-0.56 196.74-2.44L196.74-2.44 196.74-4.44Q192.71-1.56 189.45-0.28 186.19 1 183.36 1L183.36 1Q181.68 1 179.99 0.61 178.31 0.22 176.97-0.73 175.62-1.68 174.78-3.26 173.94-4.83 173.94-7.2L173.94-7.2 173.94-28.1Q173.94-29.71 173.79-30.8 173.64-31.88 173.25-32.54 172.86-33.2 172.16-33.48 171.45-33.76 170.64-33.76 169.84-33.76 169.64-33.74L169.64-33.74 169.54-34.2Q173.52-35.4 177.21-35.4L177.21-35.4Q177.7-34.01 177.7-32.59ZM224.69-0.15L224.69-0.15 218.95 0.05Q217.64 0.1 216.62 0.22 215.61 0.34 214.9 0.49L214.9 0.49 214.76 0.24Q215.24-0.46 215.24-2.34L215.24-2.34 215.24-28.1Q215.24-29.76 215.1-30.86 214.95-31.96 214.55-32.6 214.15-33.25 213.45-33.51 212.75-33.76 211.95-33.76 211.14-33.76 210.95-33.74L210.95-33.74 210.85-34.45Q213.8-34.84 216.67-35.13 219.54-35.42 220.57-35.46 221.59-35.5 222.54-35.5L222.54-35.5Q225.2-35.5 227.27-35.17 229.33-34.84 230.73-34.08 232.14-33.33 232.87-32.12 233.6-30.91 233.6-29.15L233.6-29.15Q233.6-27.64 233.02-26.27 232.43-24.9 231.39-23.73 230.36-22.56 228.96-21.61 227.57-20.65 225.96-20L225.96-20 225.96-19.8Q227.87-19.56 229.68-18.95 231.5-18.33 232.92-17.25 234.34-16.16 235.19-14.56 236.04-12.96 236.04-10.74L236.04-10.74Q236.04-8.13 235.06-6.14 234.07-4.15 232.46-2.82 230.84-1.49 228.81-0.82 226.77-0.15 224.69-0.15ZM219-32.06L219-32.06 219-1.54 223.2-1.34Q227.26-1.15 229.73-3.31 232.21-5.47 232.21-9.91L232.21-9.91Q232.21-12.23 231.31-14.03 230.4-15.82 228.81-16.89 227.21-17.97 225.16-18.51 223.11-19.04 220.66-18.99L220.66-18.99 220.66-20.04Q222.98-20.09 225.03-21.04 227.08-22 228.46-23.94 229.84-25.88 229.84-28.44L229.84-28.44Q229.84-30.66 228.93-31.86 228.01-33.06 226.5-33.54 224.99-34.03 223.01-33.98 221.03-33.94 218.91-33.64L218.91-33.64Q218.88-33.64 218.86-33.64L218.86-33.64Q219-32.84 219-32.06ZM249.69-18.19L249.69-1.49 258.28-1.76Q260.07-1.81 261.29-2.17 262.51-2.54 263.39-3.21 264.26-3.88 264.92-4.87 265.58-5.86 266.24-7.15L266.24-7.15 266.95-6.86 264.53-0.34 264.14 0 246.39 0Q245.93-1 245.93-2.39L245.93-2.39 245.93-28.34Q245.93-29.96 245.78-30.99 245.64-32.03 245.25-32.65 244.86-33.28 244.16-33.52 243.46-33.76 242.37-33.76L242.37-33.76Q242.19-33.76 242.01-33.76 241.83-33.76 241.63-33.74L241.63-33.74 241.54-34.45Q248.49-35.55 256.87-35.55L256.87-35.55Q261.14-35.55 265.83-35.25L265.83-35.25 266-34.84 263.68-28.76 262.9-29Q263.09-29.93 263.19-30.71 263.29-31.49 263.29-32.24 263.29-32.98 263.09-33.64L263.09-33.64Q261.26-33.81 259.49-33.9 257.72-33.98 255.96-33.98L255.96-33.98Q252.77-33.98 249.69-33.69L249.69-33.69 249.69-19.9 263.04-20.63 263.29-20.36 262.14-18.36Q261.04-18.41 259.92-18.43 258.8-18.46 257.62-18.46L257.62-18.46Q255.72-18.46 253.74-18.38 251.76-18.31 249.69-18.19L249.69-18.19Z" opacity="1" transform="matrix(1,0,0,1,0,0)" fill="#61777f" class="wordmark-text-0" data-fill-palette-color="primary" id="text-0"></path></svg></g></svg></g></svg></g></svg></g></svg></g></svg></g><g mask="url(&quot;#d5c8268d-4a0f-4702-9944-521b74d22c5c&quot;)"><g transform="matrix(3.9967361394803684, 0, 0, 3.9967361394803684, 25.330803784225765, 1)"><svg xmlns="http://www.w3.org/2000/svg" xmlns:xlink="http://www.w3.org/1999/xlink" version="1.1" x="0" y="0" viewBox="6.85699987411499 19.32496452331543 86.28500366210938 61.350059509277344" enable-background="new 0 0 100 100" xml:space="preserve" height="61.350059509277344" width="86.28500366210938" class="icon-none" data-fill-palette-color="accent" id="none"><g fill="#c8c8c8" data-fill-palette-color="accent"><path d="M91.648 29.694c-1.056-4.57-4.81-7.938-9.327-8.441-10.699-1.191-21.527-1.934-32.309-1.928-10.782-0.006-21.611 0.737-32.311 1.928-4.517 0.503-8.269 3.871-9.324 8.441-1.501 6.506-1.52 13.607-1.52 20.307 0 6.699 0 13.8 1.502 20.307 1.056 4.566 4.808 7.938 9.325 8.438 10.699 1.191 21.527 1.934 32.31 1.929 10.782 0.005 21.611-0.737 32.309-1.929 4.518-0.501 8.271-3.872 9.327-8.438 1.501-6.507 1.512-13.608 1.512-20.307C93.142 43.302 93.15 36.2 91.648 29.694M64.711 51.988l-20.34 10.997c-2.022 1.094-3.677 0.107-3.677-2.191V39.207c0-2.299 1.654-3.286 3.677-2.192l20.34 10.998C66.734 49.105 66.734 50.895 64.711 51.988" fill="#c8c8c8" data-fill-palette-color="accent"></path></g></svg></g></g></svg></g><defs><mask id="13930377-380e-4dbf-b7c7-a7518091407b"><rect width="640" height="400" fill="white"></rect><rect width="348.05760000000004" height="64.09912300502353" fill="black" y="91.55043849748823" x="23.731199999999973" id="transform-me"></rect></mask><mask id="df6e287d-2ab1-4e04-972e-366a662a500e"><rect width="640" height="400" fill="white"></rect><rect width="348.05760000000004" height="64.09912300502353" fill="black" y="91.55043849748823" x="23.731199999999973" id="transform-me"></rect></mask><mask id="88f7bb5c-90c9-4658-a9c0-b5b994d595ec"><rect width="640" height="400" fill="white"></rect><rect width="348.05760000000004" height="65.19079409304699" fill="black" y="91.0046029534765" x="23.731199999999973" id="transform-me"></rect></mask><mask id="d4b2cafb-7959-45bd-aba4-51c0f6501a5a"><rect width="640" height="400" fill="white"></rect><rect width="348.05760000000004" height="64.09912300502353" fill="black" y="91.55043849748823" x="23.731199999999973" id="transform-me"></rect></mask><mask id="d5c8268d-4a0f-4702-9944-521b74d22c5c"><rect width="640" height="400" fill="white"></rect><rect width="348.05760000000004" height="64.09912300502353" fill="black" y="91.55043849748823" x="23.731199999999973" id="transform-me"></rect></mask></defs></svg><rect width="395.52" height="247.2" fill="none" stroke="none" visibility="hidden"></rect></g></svg></g></svg>